<mxfile host="app.diagrams.net" modified="2021-03-08T08:16:02.781Z" agent="5.0 (Windows NT 10.0; Win64; x64) AppleWebKit/537.36 (KHTML, like Gecko) Chrome/89.0.4389.72 Safari/537.36 Edg/89.0.774.45" etag="xsspTHMnMZp241hlamLY" version="14.4.3" type="github">
  <diagram id="C5RBs43oDa-KdzZeNtuy" name="Page-1">
    <mxGraphModel dx="813" dy="454" grid="1" gridSize="10" guides="1" tooltips="1" connect="1" arrows="1" fold="1" page="1" pageScale="1" pageWidth="827" pageHeight="1169" math="0" shadow="0">
      <root>
        <mxCell id="WIyWlLk6GJQsqaUBKTNV-0" />
        <mxCell id="WIyWlLk6GJQsqaUBKTNV-1" parent="WIyWlLk6GJQsqaUBKTNV-0" />
        <mxCell id="Ux5-1heh5ngr3d8wiwj2-13" style="edgeStyle=orthogonalEdgeStyle;rounded=0;orthogonalLoop=1;jettySize=auto;html=1;exitX=0.5;exitY=1;exitDx=0;exitDy=0;entryX=0.5;entryY=0;entryDx=0;entryDy=0;fontFamily=仿宋;fontSource=https%3A%2F%2Ffonts.googleapis.com%2Fcss%3Ffamily%3D%25E4%25BB%25BF%25E5%25AE%258B;fontStyle=1" edge="1" parent="WIyWlLk6GJQsqaUBKTNV-1" source="Ux5-1heh5ngr3d8wiwj2-0" target="Ux5-1heh5ngr3d8wiwj2-2">
          <mxGeometry relative="1" as="geometry" />
        </mxCell>
        <mxCell id="Ux5-1heh5ngr3d8wiwj2-0" value="&lt;span&gt;月尺度数据集&lt;/span&gt;&lt;br&gt;&lt;span&gt;（LAI+环境要素）&lt;/span&gt;" style="rounded=1;whiteSpace=wrap;html=1;fontFamily=仿宋;fontSource=https%3A%2F%2Ffonts.googleapis.com%2Fcss%3Ffamily%3D%25E4%25BB%25BF%25E5%25AE%258B;fontStyle=1" vertex="1" parent="WIyWlLk6GJQsqaUBKTNV-1">
          <mxGeometry x="30" y="20" width="120" height="50" as="geometry" />
        </mxCell>
        <mxCell id="Ux5-1heh5ngr3d8wiwj2-12" style="edgeStyle=orthogonalEdgeStyle;rounded=0;orthogonalLoop=1;jettySize=auto;html=1;entryX=0.5;entryY=0;entryDx=0;entryDy=0;fontFamily=仿宋;fontSource=https%3A%2F%2Ffonts.googleapis.com%2Fcss%3Ffamily%3D%25E4%25BB%25BF%25E5%25AE%258B;fontStyle=1" edge="1" parent="WIyWlLk6GJQsqaUBKTNV-1" source="Ux5-1heh5ngr3d8wiwj2-1" target="Ux5-1heh5ngr3d8wiwj2-3">
          <mxGeometry relative="1" as="geometry" />
        </mxCell>
        <mxCell id="Ux5-1heh5ngr3d8wiwj2-1" value="年尺度数据集&lt;br&gt;（LAI+LUCC）" style="rounded=1;whiteSpace=wrap;html=1;fontFamily=仿宋;fontSource=https%3A%2F%2Ffonts.googleapis.com%2Fcss%3Ffamily%3D%25E4%25BB%25BF%25E5%25AE%258B;fontStyle=1" vertex="1" parent="WIyWlLk6GJQsqaUBKTNV-1">
          <mxGeometry x="215" y="20" width="120" height="50" as="geometry" />
        </mxCell>
        <mxCell id="Ux5-1heh5ngr3d8wiwj2-14" style="edgeStyle=orthogonalEdgeStyle;rounded=0;orthogonalLoop=1;jettySize=auto;html=1;exitX=0.5;exitY=1;exitDx=0;exitDy=0;entryX=0.25;entryY=0;entryDx=0;entryDy=0;fontFamily=仿宋;fontSource=https%3A%2F%2Ffonts.googleapis.com%2Fcss%3Ffamily%3D%25E4%25BB%25BF%25E5%25AE%258B;fontStyle=1" edge="1" parent="WIyWlLk6GJQsqaUBKTNV-1" source="Ux5-1heh5ngr3d8wiwj2-2" target="Ux5-1heh5ngr3d8wiwj2-5">
          <mxGeometry relative="1" as="geometry">
            <Array as="points">
              <mxPoint x="90" y="160" />
              <mxPoint x="155" y="160" />
            </Array>
          </mxGeometry>
        </mxCell>
        <mxCell id="Ux5-1heh5ngr3d8wiwj2-2" value="月尺度数据矩阵&lt;br&gt;（LAI+环境要素）" style="rounded=1;whiteSpace=wrap;html=1;fontFamily=仿宋;fontSource=https%3A%2F%2Ffonts.googleapis.com%2Fcss%3Ffamily%3D%25E4%25BB%25BF%25E5%25AE%258B;fontStyle=1" vertex="1" parent="WIyWlLk6GJQsqaUBKTNV-1">
          <mxGeometry x="30" y="96" width="120" height="50" as="geometry" />
        </mxCell>
        <mxCell id="Ux5-1heh5ngr3d8wiwj2-15" style="edgeStyle=orthogonalEdgeStyle;rounded=0;orthogonalLoop=1;jettySize=auto;html=1;exitX=0.5;exitY=1;exitDx=0;exitDy=0;entryX=0.75;entryY=0;entryDx=0;entryDy=0;fontFamily=仿宋;fontSource=https%3A%2F%2Ffonts.googleapis.com%2Fcss%3Ffamily%3D%25E4%25BB%25BF%25E5%25AE%258B;fontStyle=1" edge="1" parent="WIyWlLk6GJQsqaUBKTNV-1" source="Ux5-1heh5ngr3d8wiwj2-3" target="Ux5-1heh5ngr3d8wiwj2-5">
          <mxGeometry relative="1" as="geometry">
            <mxPoint x="200" y="173" as="targetPoint" />
            <Array as="points">
              <mxPoint x="275" y="160" />
              <mxPoint x="205" y="160" />
            </Array>
          </mxGeometry>
        </mxCell>
        <mxCell id="Ux5-1heh5ngr3d8wiwj2-3" value="年尺度数据矩阵&lt;br&gt;（LAI+环境要素+&lt;br&gt;LUCC）" style="rounded=1;whiteSpace=wrap;html=1;fontFamily=仿宋;fontSource=https%3A%2F%2Ffonts.googleapis.com%2Fcss%3Ffamily%3D%25E4%25BB%25BF%25E5%25AE%258B;fontStyle=1" vertex="1" parent="WIyWlLk6GJQsqaUBKTNV-1">
          <mxGeometry x="215" y="96" width="120" height="50" as="geometry" />
        </mxCell>
        <mxCell id="Ux5-1heh5ngr3d8wiwj2-16" style="edgeStyle=orthogonalEdgeStyle;rounded=0;orthogonalLoop=1;jettySize=auto;html=1;exitX=0.25;exitY=1;exitDx=0;exitDy=0;entryX=0.5;entryY=0;entryDx=0;entryDy=0;fontFamily=仿宋;fontSource=https%3A%2F%2Ffonts.googleapis.com%2Fcss%3Ffamily%3D%25E4%25BB%25BF%25E5%25AE%258B;fontStyle=1" edge="1" parent="WIyWlLk6GJQsqaUBKTNV-1" source="Ux5-1heh5ngr3d8wiwj2-5" target="Ux5-1heh5ngr3d8wiwj2-6">
          <mxGeometry relative="1" as="geometry">
            <Array as="points">
              <mxPoint x="155" y="210" />
              <mxPoint x="90" y="210" />
            </Array>
          </mxGeometry>
        </mxCell>
        <mxCell id="Ux5-1heh5ngr3d8wiwj2-21" style="edgeStyle=orthogonalEdgeStyle;rounded=0;orthogonalLoop=1;jettySize=auto;html=1;exitX=0.75;exitY=1;exitDx=0;exitDy=0;entryX=0.5;entryY=0;entryDx=0;entryDy=0;fontFamily=仿宋;fontSource=https%3A%2F%2Ffonts.googleapis.com%2Fcss%3Ffamily%3D%25E4%25BB%25BF%25E5%25AE%258B;fontStyle=1" edge="1" parent="WIyWlLk6GJQsqaUBKTNV-1" source="Ux5-1heh5ngr3d8wiwj2-5" target="Ux5-1heh5ngr3d8wiwj2-7">
          <mxGeometry relative="1" as="geometry">
            <Array as="points">
              <mxPoint x="205" y="210" />
              <mxPoint x="275" y="210" />
            </Array>
          </mxGeometry>
        </mxCell>
        <mxCell id="Ux5-1heh5ngr3d8wiwj2-5" value="&lt;span&gt;PCMCI因果识别&lt;/span&gt;" style="rounded=0;whiteSpace=wrap;html=1;fontFamily=仿宋;fontSource=https%3A%2F%2Ffonts.googleapis.com%2Fcss%3Ffamily%3D%25E4%25BB%25BF%25E5%25AE%258B;fontStyle=1" vertex="1" parent="WIyWlLk6GJQsqaUBKTNV-1">
          <mxGeometry x="130" y="173" width="100" height="28" as="geometry" />
        </mxCell>
        <mxCell id="Ux5-1heh5ngr3d8wiwj2-18" style="edgeStyle=orthogonalEdgeStyle;rounded=0;orthogonalLoop=1;jettySize=auto;html=1;exitX=0.5;exitY=1;exitDx=0;exitDy=0;fontFamily=仿宋;fontSource=https%3A%2F%2Ffonts.googleapis.com%2Fcss%3Ffamily%3D%25E4%25BB%25BF%25E5%25AE%258B;fontStyle=1" edge="1" parent="WIyWlLk6GJQsqaUBKTNV-1" source="Ux5-1heh5ngr3d8wiwj2-6" target="Ux5-1heh5ngr3d8wiwj2-8">
          <mxGeometry relative="1" as="geometry" />
        </mxCell>
        <mxCell id="Ux5-1heh5ngr3d8wiwj2-6" value="LAI+环境要素&lt;br&gt;网络连边列表" style="rounded=1;whiteSpace=wrap;html=1;fontFamily=仿宋;fontSource=https%3A%2F%2Ffonts.googleapis.com%2Fcss%3Ffamily%3D%25E4%25BB%25BF%25E5%25AE%258B;fontStyle=1" vertex="1" parent="WIyWlLk6GJQsqaUBKTNV-1">
          <mxGeometry x="30" y="224" width="120" height="50" as="geometry" />
        </mxCell>
        <mxCell id="Ux5-1heh5ngr3d8wiwj2-7" value="LAI+环境要素+LUCC&lt;br&gt;网络连边列表" style="rounded=1;whiteSpace=wrap;html=1;fontFamily=仿宋;fontSource=https%3A%2F%2Ffonts.googleapis.com%2Fcss%3Ffamily%3D%25E4%25BB%25BF%25E5%25AE%258B;fontStyle=1" vertex="1" parent="WIyWlLk6GJQsqaUBKTNV-1">
          <mxGeometry x="215" y="224" width="120" height="50" as="geometry" />
        </mxCell>
        <mxCell id="Ux5-1heh5ngr3d8wiwj2-8" value="LAI+环境要素+LUCC&lt;br&gt;因果网络" style="rounded=1;whiteSpace=wrap;html=1;fontFamily=仿宋;fontSource=https%3A%2F%2Ffonts.googleapis.com%2Fcss%3Ffamily%3D%25E4%25BB%25BF%25E5%25AE%258B;fontStyle=1" vertex="1" parent="WIyWlLk6GJQsqaUBKTNV-1">
          <mxGeometry x="30" y="310" width="120" height="50" as="geometry" />
        </mxCell>
        <mxCell id="Ux5-1heh5ngr3d8wiwj2-26" style="edgeStyle=orthogonalEdgeStyle;rounded=0;orthogonalLoop=1;jettySize=auto;html=1;exitX=0;exitY=0.5;exitDx=0;exitDy=0;fontFamily=仿宋;fontSource=https%3A%2F%2Ffonts.googleapis.com%2Fcss%3Ffamily%3D%25E4%25BB%25BF%25E5%25AE%258B;" edge="1" parent="WIyWlLk6GJQsqaUBKTNV-1" source="Ux5-1heh5ngr3d8wiwj2-9">
          <mxGeometry relative="1" as="geometry">
            <mxPoint x="90" y="290" as="targetPoint" />
            <Array as="points">
              <mxPoint x="180" y="335" />
              <mxPoint x="180" y="290" />
            </Array>
          </mxGeometry>
        </mxCell>
        <mxCell id="Ux5-1heh5ngr3d8wiwj2-9" value="所有与LUCC有关的&lt;br&gt;网络连边列表" style="rounded=1;whiteSpace=wrap;html=1;fontFamily=仿宋;fontSource=https%3A%2F%2Ffonts.googleapis.com%2Fcss%3Ffamily%3D%25E4%25BB%25BF%25E5%25AE%258B;fontStyle=1" vertex="1" parent="WIyWlLk6GJQsqaUBKTNV-1">
          <mxGeometry x="215" y="310" width="120" height="50" as="geometry" />
        </mxCell>
        <mxCell id="Ux5-1heh5ngr3d8wiwj2-10" value="" style="endArrow=classic;html=1;exitX=1;exitY=0.5;exitDx=0;exitDy=0;entryX=0;entryY=0;entryDx=0;entryDy=0;fontStyle=1" edge="1" parent="WIyWlLk6GJQsqaUBKTNV-1" source="Ux5-1heh5ngr3d8wiwj2-0" target="Ux5-1heh5ngr3d8wiwj2-3">
          <mxGeometry relative="1" as="geometry">
            <mxPoint x="150" y="30" as="sourcePoint" />
            <mxPoint x="223" y="80" as="targetPoint" />
          </mxGeometry>
        </mxCell>
        <mxCell id="Ux5-1heh5ngr3d8wiwj2-11" value="归约" style="edgeLabel;resizable=0;html=1;align=center;verticalAlign=middle;fontStyle=1" connectable="0" vertex="1" parent="Ux5-1heh5ngr3d8wiwj2-10">
          <mxGeometry relative="1" as="geometry" />
        </mxCell>
        <mxCell id="Ux5-1heh5ngr3d8wiwj2-22" value="" style="endArrow=classic;html=1;exitX=0.5;exitY=1;exitDx=0;exitDy=0;entryX=0.5;entryY=0;entryDx=0;entryDy=0;fontStyle=1" edge="1" parent="WIyWlLk6GJQsqaUBKTNV-1" source="Ux5-1heh5ngr3d8wiwj2-7" target="Ux5-1heh5ngr3d8wiwj2-9">
          <mxGeometry relative="1" as="geometry">
            <mxPoint x="280" y="270" as="sourcePoint" />
            <mxPoint x="275" y="308" as="targetPoint" />
          </mxGeometry>
        </mxCell>
        <mxCell id="Ux5-1heh5ngr3d8wiwj2-23" value="筛选" style="edgeLabel;resizable=0;html=1;align=center;verticalAlign=middle;fontStyle=1" connectable="0" vertex="1" parent="Ux5-1heh5ngr3d8wiwj2-22">
          <mxGeometry relative="1" as="geometry">
            <mxPoint y="-3.4299999999999997" as="offset" />
          </mxGeometry>
        </mxCell>
      </root>
    </mxGraphModel>
  </diagram>
</mxfile>
